<?xml version="1.0" encoding="UTF-8"?>
<svg xmlns="http://www.w3.org/2000/svg" viewBox="0 0 26 26" enable-background="new 0 0 26 26">
    <path d="M 6.1875 4.09375 C 5.7875 4.09375 5.6 4.2125 5.5 4.3125 C 5.4 4.4125 5.2875 4.6125 5.1875 4.8125 L 0.09375 21.3125 C -0.00625 21.6125 -0.00625 21.80625 0.09375 21.90625 C 0.19375 21.90625 0.3 22 0.5 22 L 3.40625 22 C 3.60625 22 3.8 21.9125 4 21.8125 C 4.1 21.7125 4.3125 21.4875 4.3125 21.1875 L 5.21875 18 L 10.5625 18 L 11.40625 21.1875 C 11.50625 21.4875 11.5875 21.7125 11.6875 21.8125 C 11.7875 21.9125 12.0125 22 12.3125 22 L 15.59375 22 C 15.79375 22 15.90625 21.9125 15.90625 21.8125 C 16.00625 21.7125 16.00625 21.6125 15.90625 21.3125 L 10.59375 4.90625 C 10.49375 4.60625 10.4125 4.5125 10.3125 4.3125 C 10.2125 4.2125 9.89375 4.09375 9.59375 4.09375 L 6.1875 4.09375 z M 7.90625 8.40625 L 8 8.40625 L 9.75 15 L 6.0625 15 L 7.90625 8.40625 z M 21 9 C 20.4 9 20 9.4 20 10 L 20 12 L 18 12 C 17.4 12 17 12.4 17 13 L 17 14 C 17 14.6 17.4 15 18 15 L 20 15 L 20 17 C 20 17.6 20.4 18 21 18 L 22 18 C 22.6 18 23 17.6 23 17 L 23 15 L 25 15 C 25.6 15 26 14.6 26 14 L 26 13 C 26 12.4 25.6 12 25 12 L 23 12 L 23 10 C 23 9.4 22.6 9 22 9 L 21 9 z"/>
</svg>